# xmcd CD database file
#
# Track frame offsets:
#	150
#	19675
#	39640
#	46075
#	66040
#	80327
#	95027
#	108657
#	123372
#	137782
#	153670
#	167717
#	182480
#	196955
#	213127
#	227140
#	241725
#	253432
#	268050
#	283270
#	298440
#
# Disc length: 4529 seconds
#
# Revision: 0
# Processed by: cddbd v1.5.1PL0 Copyright (c) Steve Scherf et al.
# Submitted via: CDex 1.51
#
DISCID=3c11af15
DTITLE=Vivian Ellis - Spread a Little Happiness [Conifer]
DYEAR=1900
DGENRE=Jazz
TTITLE0=I Will/The First Waltz [Streamline]
TTITLE1=Other People's Babies [Streamline]
TTITLE2=You Turned Your Head [Streamline]
TTITLE3=Speech Day [Streamline]
TTITLE4=Let's Lay Our Heads Together [Jill Darling]
TTITLE5=I'd Do the Most Extraordinary Things [Jill Darling]
TTITLE6=Nonny, Nonny No [Jill Darling]
TTITLE7=I'm on a See-Saw [Jill Darling]
TTITLE8=Faint Harmony [Jack and Jill]
TTITLE9=Medley: The Professional Diner Out/The Trees in Bloomsbury Square/And S
TTITLE10=There Never Was a Girl Like Mary (The Town Talks)
TTITLE11=Me and My Dog (Public Nuisance, No. 1)
TTITLE12=Swing (Public Nuisance No. 1)
TTITLE13=When a Woman Smiles [O Misteress Mine]
TTITLE14=Two Little Princesses [#]
TTITLE15=She's My Lovely [Hide and Seek]
TTITLE16=How Do You Do, Mr. Right? [The Fleet's Lit Up]
TTITLE17=Medley: Doing an Irish Jig/Take Your Partners for the Waltz/When Love K
TTITLE18=Together Again (Under Your Hat)
TTITLE19=The Empire Depends on You (Under Your Hat)
TTITLE20=Let Me Play [Medley]
EXTD=
EXTT0=
EXTT1=
EXTT2=
EXTT3=
EXTT4=
EXTT5=
EXTT6=
EXTT7=
EXTT8=
EXTT9=
EXTT10=
EXTT11=
EXTT12=
EXTT13=
EXTT14=
EXTT15=
EXTT16=
EXTT17=
EXTT18=
EXTT19=
EXTT20=
PLAYORDER=
